<svg width="36" height="36" viewBox="0 0 36 36" fill="none" xmlns="http://www.w3.org/2000/svg">
<path d="M16.9453 30.6562H19.0547C19.2422 30.6562 19.3359 30.5625 19.3359 30.375V5.625C19.3359 5.4375 19.2422 5.34375 19.0547 5.34375H16.9453C16.7578 5.34375 16.6641 5.4375 16.6641 5.625V30.375C16.6641 30.5625 16.7578 30.6562 16.9453 30.6562Z" fill="black"/>
<path d="M6.1875 19.3359H29.8125C30 19.3359 30.0938 19.2422 30.0938 19.0547V16.9453C30.0938 16.7578 30 16.6641 29.8125 16.6641H6.1875C6 16.6641 5.90625 16.7578 5.90625 16.9453V19.0547C5.90625 19.2422 6 19.3359 6.1875 19.3359Z" fill="black"/>
</svg>
