<svg width="18" height="18" viewBox="0 0 18 18" fill="none" xmlns="http://www.w3.org/2000/svg">
<path d="M0.219001 1.281C0.149269 1.21127 0.0939551 1.12849 0.0562165 1.03738C0.0184778 0.946267 -0.000946044 0.848617 -0.000946045 0.750001C-0.000946046 0.651385 0.0184778 0.553735 0.0562165 0.462626C0.0939551 0.371517 0.149269 0.288733 0.219001 0.219001C0.288733 0.149269 0.371517 0.0939551 0.462626 0.0562165C0.553735 0.0184778 0.651385 -0.000946046 0.750001 -0.000946045C0.848617 -0.000946044 0.946267 0.0184778 1.03738 0.0562165C1.12849 0.0939551 1.21127 0.149269 1.281 0.219001L9 7.9395L16.719 0.219001C16.7887 0.149269 16.8715 0.0939551 16.9626 0.0562165C17.0537 0.0184778 17.1514 -0.000946045 17.25 -0.000946045C17.3486 -0.000946045 17.4463 0.0184778 17.5374 0.0562165C17.6285 0.0939551 17.7113 0.149269 17.781 0.219001C17.8507 0.288733 17.906 0.371517 17.9438 0.462626C17.9815 0.553735 18.0009 0.651385 18.0009 0.750001C18.0009 0.848617 17.9815 0.946267 17.9438 1.03738C17.906 1.12849 17.8507 1.21127 17.781 1.281L10.0605 9L17.781 16.719C17.8507 16.7887 17.906 16.8715 17.9438 16.9626C17.9815 17.0537 18.0009 17.1514 18.0009 17.25C18.0009 17.3486 17.9815 17.4463 17.9438 17.5374C17.906 17.6285 17.8507 17.7113 17.781 17.781C17.7113 17.8507 17.6285 17.906 17.5374 17.9438C17.4463 17.9815 17.3486 18.0009 17.25 18.0009C17.1514 18.0009 17.0537 17.9815 16.9626 17.9438C16.8715 17.906 16.7887 17.8507 16.719 17.781L9 10.0605L1.281 17.781C1.21127 17.8507 1.12849 17.906 1.03738 17.9438C0.946267 17.9815 0.848617 18.0009 0.750001 18.0009C0.651385 18.0009 0.553735 17.9815 0.462626 17.9438C0.371517 17.906 0.288733 17.8507 0.219001 17.781C0.149269 17.7113 0.0939551 17.6285 0.0562165 17.5374C0.0184778 17.4463 -0.000946045 17.3486 -0.000946045 17.25C-0.000946045 17.1514 0.0184778 17.0537 0.0562165 16.9626C0.0939551 16.8715 0.149269 16.7887 0.219001 16.719L7.9395 9L0.219001 1.281Z" fill="black"/>
</svg>
