<svg width="22" height="22" viewBox="0 0 22 22" fill="none" xmlns="http://www.w3.org/2000/svg">
<path d="M15.5848 0.830151C16.659 -0.243982 18.4035 -0.243982 19.4777 0.830151L21.1707 2.52441C22.2449 3.5982 22.2449 5.34101 21.1707 6.41523L19.091 8.49492L13.5051 2.90984L15.5848 0.830151ZM18.1199 9.46601L8.09961 19.482C7.65273 19.9289 7.09844 20.2598 6.49258 20.4359L1.32215 21.957C0.960348 22.0644 0.568903 21.9656 0.302067 21.6605C0.035231 21.4328 -0.0645425 21.0418 0.0419341 20.6766L1.56277 15.5074C1.74152 14.9016 2.06937 14.3473 2.51668 13.9004L12.534 3.88179L18.1199 9.46601Z" fill="black"/>
</svg>
