<svg width="29" height="29" viewBox="0 0 29 29" fill="none" xmlns="http://www.w3.org/2000/svg">
<path d="M22.9583 4.83332H19.3333V2.41666H16.9167V4.83332H12.0833V2.41666H9.66667V4.83332H6.04167C4.70887 4.83332 3.625 5.9172 3.625 7.24999V24.1667C3.625 25.4994 4.70887 26.5833 6.04167 26.5833H22.9583C24.2911 26.5833 25.375 25.4994 25.375 24.1667V7.24999C25.375 5.9172 24.2911 4.83332 22.9583 4.83332ZM6.04167 24.1667V8.45832H22.9583V7.24999L22.9608 24.1667H6.04167Z" fill="black"/>
<path d="M19.8838 14.7211L17.7088 12.5473L19.3642 10.8907L21.5392 13.0645L19.8838 14.7211ZM10.6727 19.5762V21.75H12.8465L18.8592 15.7446L16.6854 13.5708L10.6727 19.5762Z" fill="black"/>
</svg>
